<?xml version="1.0" encoding="utf-8"?>
<!-- Generator: Adobe Illustrator 16.0.0, SVG Export Plug-In . SVG Version: 6.00 Build 0)  -->
<svg version="1.2" baseProfile="tiny" id="Layer_1" xmlns="http://www.w3.org/2000/svg" xmlns:xlink="http://www.w3.org/1999/xlink"
	 x="0px" y="0px" width="3000px" height="3000px" viewBox="0 0 3000 3000" xml:space="preserve">
<g>
	<g>
		<path d="M54.921,1996.383v-7.464h9.702c11.189,0,18.654-3.731,23.88-10.439c2.982-4.482,4.476-13.428,4.476-28.368v-169.439
			c0-16.416-1.494-26.874-5.226-30.612c-5.22-5.97-12.678-8.208-22.386-8.208H54.921v-7.464h106.74
			c39.558,0,68.67,4.476,89.574,13.434c20.154,8.958,36.576,23.887,49.26,44.79c12.689,20.893,18.66,44.784,18.66,71.658
			c0,36.57-11.196,67.176-33.601,91.813c-24.624,27.624-62.688,41.052-113.442,41.052H54.921V1996.383z M129.567,1977.724
			c16.422,3.731,29.868,5.22,41.064,5.22c29.856,0,54.486-10.435,74.634-31.351c19.404-20.897,29.862-49.266,29.862-85.842
			c0-36.582-9.696-64.932-29.862-85.848c-20.148-20.893-44.79-31.351-76.128-31.351c-11.94,0-24.63,2.238-39.57,5.971V1977.724z"/>
		<path d="M446.799,1971.016c-17.91,14.166-29.856,22.38-34.338,24.624c-6.714,2.987-14.179,4.476-22.393,4.476
			c-11.934,0-22.386-4.476-30.605-12.684c-8.202-8.208-11.935-19.404-11.935-32.845c0-8.958,2.238-16.422,5.965-22.392
			c5.226-8.952,14.178-17.16,27.624-24.624c13.428-7.464,35.081-17.16,64.926-28.362v-6.72c0-17.916-2.982-29.868-8.202-36.588
			c-5.964-6.714-13.428-9.702-24.624-9.702c-8.214,0-14.928,2.238-19.41,6.72c-5.214,4.477-7.458,9.702-7.458,14.929l0.75,11.195
			c0,5.971-1.494,10.446-4.481,13.435c-2.982,2.988-6.714,4.476-11.94,4.476c-4.476,0-8.958-1.487-11.939-5.22
			c-2.988-2.987-4.482-8.214-4.482-13.439c0-11.196,5.97-21.643,17.166-30.612c11.195-8.958,27.624-14.178,47.777-14.178
			c15.666,0,28.362,2.987,38.814,8.214c7.464,3.726,13.434,10.439,17.166,18.653c2.238,5.227,3.732,17.166,3.732,34.345v60.456
			c0,17.166,0,26.874,0.744,31.35c0.75,3.732,1.493,6.72,2.987,7.464c1.494,1.494,2.988,2.25,5.227,2.25
			c2.237,0,3.731-0.756,5.226-1.5c2.977-1.494,8.202-6.72,15.666-14.178v11.189c-14.178,19.404-28.368,29.118-41.058,29.118
			c-5.971,0-11.196-2.238-14.929-6.72C449.037,1988.919,447.543,1981.455,446.799,1971.016z M446.799,1958.325v-67.182
			c-19.404,7.464-32.094,13.434-38.07,16.422c-10.446,5.97-17.166,11.939-21.636,17.91c-4.482,5.97-6.72,12.684-6.72,20.147
			c0,8.958,2.987,17.16,8.214,23.143c5.214,5.964,11.934,8.945,19.397,8.945C418.437,1977.724,431.121,1971.016,446.799,1958.325z"
			/>
		<path d="M574.437,1851.585c20.893-25.374,40.309-37.325,59.712-37.325c9.702,0,17.91,2.237,24.624,7.464
			c6.721,4.47,12.685,12.684,16.416,23.88c2.988,7.464,4.482,19.404,4.482,35.832v75.384c0,11.189,0.744,18.654,2.982,23.13
			c1.493,2.982,3.731,5.97,6.72,7.464c2.981,1.488,8.958,2.982,17.16,2.982v6.72h-87.324v-6.72h3.731
			c8.215,0,14.185-1.494,17.166-3.732c2.988-2.238,5.227-5.97,6.721-11.189c0.744-2.238,0.744-8.202,0.744-17.904v-72.402
			c0-16.416-2.238-27.624-5.971-35.088c-4.476-7.464-11.195-11.196-20.897-11.196c-15.673,0-30.601,8.209-45.528,25.381v93.306
			c0,11.935,0.744,19.398,2.238,22.38c1.494,3.732,4.476,6.714,7.464,8.208c2.976,1.494,9.696,2.238,19.392,2.238v6.72h-88.8v-6.72
			h3.726c8.952,0,14.929-2.238,17.91-6.714c2.988-4.482,4.482-13.435,4.482-26.124v-65.694c0-21.63-0.75-34.332-1.494-38.808
			c-0.75-4.482-2.238-7.464-4.482-9.708c-2.237-1.488-4.476-2.238-8.207-2.238c-3.732,0-8.209,0.75-12.69,2.988l-2.976-6.721
			l53.735-21.636h8.958v35.844H574.437z"/>
		<path d="M781.94,1814.26v142.571c0,11.19,0.75,18.654,2.244,22.386c1.488,3.727,3.732,6.714,7.464,8.208
			c2.982,1.488,8.952,2.982,17.16,2.982v6.72h-85.842v-6.72c8.958,0,14.178-0.744,17.166-2.238c2.988-1.493,5.226-4.476,6.72-8.201
			c1.482-3.727,2.238-11.19,2.238-22.387v-67.932c0-19.392-0.756-31.351-1.494-37.32c-0.744-4.476-2.238-6.714-4.476-8.958
			c-2.25-1.488-4.482-2.238-8.214-2.238c-3.732,0-8.208,0.75-13.435,2.988l-2.987-6.72l53.741-21.636h9.702L781.94,1814.26
			L781.94,1814.26z M765.524,1720.959c5.221,0,9.702,2.232,14.179,5.964c3.731,3.727,5.97,8.202,5.97,14.179
			c0,5.22-2.238,9.702-5.97,14.178c-3.732,3.732-8.208,5.97-14.179,5.97c-5.226,0-9.708-2.237-14.178-5.97
			c-3.726-3.732-5.964-8.208-5.964-14.178c0-5.227,2.238-9.708,5.964-14.179C755.816,1723.197,760.299,1720.959,765.524,1720.959z"
			/>
		<path d="M860.319,1885.911c0,26.124,5.976,47.028,19.409,61.956c12.69,14.922,28.368,22.386,45.528,22.386
			c11.945,0,21.648-2.976,30.618-9.696c8.208-6.714,15.666-17.166,21.636-32.844l5.964,3.727
			c-2.976,17.909-10.44,33.6-23.874,48.521c-12.689,14.172-29.124,21.636-49.271,21.636c-21.637,0-39.564-8.208-54.486-24.624
			c-14.928-16.416-22.392-38.819-22.392-67.176c0-30.606,7.464-53.742,23.136-70.908c15.672-17.159,35.088-25.374,58.224-25.374
			c20.142,0,35.832,6.721,49.267,19.404c12.684,13.435,19.392,30.612,19.392,52.254H860.319V1885.911L860.319,1885.911z
			 M860.319,1874.722h82.115c-0.744-11.196-2.238-19.404-3.731-23.887c-2.982-7.464-8.208-12.684-14.179-17.166
			c-6.72-4.476-12.684-5.964-20.142-5.964c-10.452,0-20.154,4.471-28.374,12.685
			C867.039,1848.598,861.813,1859.793,860.319,1874.722z"/>
		<path d="M1067.835,1720.959v235.128c0,11.196,0.738,18.654,2.238,22.387c1.487,3.731,3.72,6.708,7.451,8.201
			c2.982,2.238,9.702,2.988,18.66,2.988v6.714h-86.592v-6.714c8.208,0,13.434-0.75,16.416-2.238c2.988-1.493,5.227-4.481,6.72-8.208
			c1.494-3.731,2.238-11.195,2.238-22.386v-161.226c0-20.148-0.744-32.101-1.494-36.582c-0.744-4.477-2.237-7.464-4.476-9.702
			c-2.238-1.494-4.482-2.238-7.465-2.238c-2.987,0-7.457,0.744-12.684,2.982l-2.988-6.714l53.004-21.636h8.959L1067.835,1720.959
			L1067.835,1720.959z"/>
		<path d="M1567.185,1734.387v7.465c-6.72,0-12.689,1.493-16.422,3.731c-4.476,2.238-8.202,6.72-11.928,13.435
			c-2.238,4.481-6.721,14.922-11.946,32.1l-73.146,211.242h-7.465l-59.718-167.946l-59.706,167.946h-6.714l-77.628-217.956
			c-5.97-16.416-9.702-26.124-11.195-29.118c-2.238-5.226-5.959-8.208-10.435-11.195c-4.481-2.238-10.452-3.732-17.916-3.732v-7.464
			h97.038v7.464h-4.477c-6.72,0-11.945,1.494-15.672,4.482c-3.731,2.981-5.226,6.714-5.226,11.195
			c0,4.477,2.988,14.929,8.208,31.351l51.498,147.048l43.308-125.389l-7.464-22.392l-5.976-17.91
			c-2.982-6.714-5.97-11.939-8.952-17.166c-1.494-2.237-3.732-4.476-5.977-5.97c-2.981-2.238-6.714-3.732-9.701-5.226
			c-2.238-0.744-5.965-1.494-11.935-1.494v-7.464h102.265v7.464h-6.721c-7.464,0-12.689,1.494-15.672,4.481
			c-2.988,2.982-5.226,7.465-5.226,12.69c0,6.714,2.981,17.91,8.958,34.338l50.004,142.572l50.016-144.811
			c5.97-15.672,8.208-26.874,8.208-33.594c0-2.988-0.744-5.97-2.981-8.214c-2.238-2.238-4.482-4.477-6.721-5.22
			c-5.226-1.494-11.195-2.988-19.397-2.988v-7.464h76.878v3.72h-0.066V1734.387z"/>
		<path d="M1580.625,1885.911c0,26.124,5.97,47.028,19.403,61.956c12.679,14.922,28.369,22.386,45.528,22.386
			c11.94,0,21.648-2.976,30.612-9.696c8.214-6.714,15.678-17.166,21.648-32.844l5.957,3.727
			c-2.976,17.909-10.434,33.6-23.873,48.521c-12.685,14.172-29.118,21.636-49.267,21.636c-21.642,0-39.558-8.208-54.485-24.624
			c-14.929-16.416-22.393-38.819-22.393-67.176c0-30.606,7.464-53.742,23.137-70.908c15.678-17.159,35.088-25.374,58.217-25.374
			c20.148,0,35.839,6.721,49.272,19.404c12.69,13.435,19.392,30.612,19.392,52.254h-123.149V1885.911L1580.625,1885.911z
			 M1580.625,1874.722h82.11c-0.744-11.196-2.238-19.404-3.732-23.887c-2.982-7.464-8.208-12.684-14.172-17.166
			c-6.721-4.476-12.69-5.964-20.154-5.964c-10.446,0-20.148,4.471-28.368,12.685
			C1586.595,1848.598,1582.118,1859.793,1580.625,1874.722z"/>
		<path d="M1787.385,1720.959v235.128c0,11.196,0.744,18.654,2.244,22.387c1.493,3.731,3.731,6.708,7.458,8.201
			c2.994,2.238,9.702,2.988,18.654,2.988v6.714h-86.586v-6.714c8.207,0,13.434-0.75,16.422-2.238
			c2.976-1.493,5.214-4.481,6.708-8.208c1.493-3.731,2.237-11.195,2.237-22.386v-161.226c0-20.148-0.744-32.101-1.487-36.582
			c-0.75-4.477-2.244-7.464-4.482-9.702c-2.231-1.494-4.47-2.238-7.458-2.238c-2.982,0-7.464,0.744-12.689,2.982l-2.982-6.714
			l52.992-21.636h8.958L1787.385,1720.959L1787.385,1720.959z"/>
		<path d="M1897.856,1720.959v235.128c0,11.196,0.75,18.654,2.238,22.387c1.494,3.731,3.732,6.708,7.464,8.201
			c2.988,2.238,9.708,2.988,18.654,2.988v6.714h-86.586v-6.714c8.208,0,13.434-0.75,16.422-2.238
			c2.981-1.493,5.226-4.481,6.714-8.208c1.488-3.731,2.238-11.195,2.238-22.386v-161.226c0-20.148-0.75-32.101-1.488-36.582
			c-0.75-4.477-2.238-7.464-4.482-9.702c-2.237-1.494-4.476-2.238-7.464-2.238c-2.981,0-7.464,0.744-12.684,2.982l-2.988-6.714
			l52.992-21.636h8.958L1897.856,1720.959L1897.856,1720.959z"/>
		<path d="M2007.585,1814.26v142.571c0,11.19,0.744,18.654,2.238,22.386c1.493,3.727,3.731,6.714,7.463,8.208
			c2.988,1.488,8.953,2.982,17.154,2.982v6.72h-85.836v-6.72c8.952,0,14.178-0.744,17.166-2.238
			c2.977-1.493,5.214-4.476,6.708-8.201c1.494-3.727,2.238-11.19,2.238-22.387v-67.932c0-19.392-0.744-31.351-1.488-37.32
			c-0.75-4.476-2.243-6.714-4.481-8.958c-2.238-1.488-4.471-2.238-8.202-2.238c-3.727,0-8.214,0.75-13.429,2.988l-2.987-6.72
			l53.741-21.636h9.703L2007.585,1814.26L2007.585,1814.26z M1991.907,1720.959c5.22,0,9.701,2.232,14.178,5.964
			c3.732,3.727,5.97,8.202,5.97,14.179c0,5.22-2.237,9.702-5.97,14.178c-3.732,3.732-8.208,5.97-14.178,5.97
			c-5.227,0-9.709-2.237-14.185-5.97s-5.97-8.208-5.97-14.178c0-5.227,2.238-9.708,5.97-14.179
			C1981.455,1723.197,1985.931,1720.959,1991.907,1720.959z"/>
		<path d="M2108.354,1851.585c20.887-25.374,40.309-37.325,59.712-37.325c9.702,0,17.91,2.237,24.624,7.464
			c6.727,4.47,12.69,12.684,16.422,23.88c2.988,7.464,4.477,19.404,4.477,35.832v75.384c0,11.189,0.75,18.654,2.988,23.13
			c1.493,2.982,3.731,5.97,6.72,7.464c2.981,1.488,8.946,2.982,17.159,2.982v6.72h-87.336v-6.72h3.732
			c8.208,0,14.184-1.494,17.166-3.732s5.22-5.97,6.714-11.189c0.744-2.238,0.744-8.202,0.744-17.904v-72.402
			c0-16.416-2.238-27.624-5.964-35.088c-4.477-7.464-11.196-11.196-20.898-11.196c-15.678,0-30.617,8.209-45.54,25.381v93.306
			c0,11.935,0.757,19.398,2.25,22.38c1.482,3.732,4.477,6.714,7.464,8.208c2.971,1.494,9.69,2.238,19.393,2.238v6.72h-87.336v-6.72
			h3.731c8.958,0,14.923-2.238,17.91-6.714c2.982-4.482,4.476-13.435,4.476-26.124v-65.694c0-21.63-0.743-34.332-1.493-38.808
			c-0.744-4.482-2.238-7.464-4.477-9.708c-2.231-1.488-4.47-2.238-8.202-2.238c-3.731,0-8.214,0.75-12.689,2.988l-2.988-6.721
			l53.748-21.636h8.202v35.832L2108.354,1851.585L2108.354,1851.585z"/>
		<path d="M2302.419,1931.451c-11.196-5.226-19.393-12.689-24.624-22.392c-5.97-9.708-8.958-20.148-8.958-31.351
			c0-17.166,6.72-32.855,20.142-45.546c13.435-12.678,29.868-18.653,50.76-18.653c17.16,0,31.356,4.481,44.046,12.689h37.326
			c5.221,0,8.946,0,9.702,0.75c0.744,0,1.494,0.738,2.238,1.482c0.737,1.493,1.493,2.987,1.493,5.976c0,2.982,0,5.97-0.756,6.714
			c-0.737,0.75-0.737,1.494-2.231,1.494c-0.744,0.744-4.477,0.744-9.702,0.744h-23.136c7.464,8.958,11.196,20.904,11.196,35.838
			c0,16.41-5.977,30.605-18.66,42.546c-12.685,11.939-29.856,17.91-50.76,17.91c-8.946,0-17.904-1.494-26.875-3.732
			c-5.97,5.226-9.701,8.958-11.195,12.69c-2.238,3.731-2.988,6.714-2.988,9.701c0,2.238,0.75,4.471,2.988,6.721
			c2.238,2.237,5.97,3.731,12.689,4.47c3.732,0.744,12.69,0.744,26.874,1.5c26.874,0.738,44.046,1.494,51.504,2.976
			c11.94,1.494,21.642,5.971,28.374,13.435c7.464,7.464,10.452,16.416,10.452,26.874c0,14.928-6.72,28.361-20.153,41.052
			c-20.154,18.66-46.285,28.374-78.379,28.374c-24.63,0-46.289-5.97-62.699-17.166c-9.703-6.72-14.179-13.434-14.179-20.154
			c0-2.976,0.744-5.964,2.238-8.951c2.237-4.471,6.714-11.19,13.434-20.143c0.738-1.494,7.458-8.214,19.393-20.904
			c-6.714-3.731-11.19-7.464-14.166-10.445c-2.994-2.988-4.488-6.714-4.488-10.446c0-4.47,1.494-9.696,5.226-15.666
			C2280.776,1951.605,2288.985,1942.647,2302.419,1931.451z M2300.181,1996.383c-5.97,6.721-10.452,12.69-13.434,18.66
			c-2.988,5.977-4.477,11.196-4.477,15.679c0,5.964,3.727,11.928,11.19,16.415c12.689,8.202,31.361,11.935,55.985,11.935
			c23.137,0,40.309-3.732,51.504-11.935c11.196-8.214,16.422-17.165,16.422-26.123c0-6.721-2.987-11.196-9.707-14.185
			c-6.715-2.988-20.148-4.476-39.564-5.226C2338.251,2000.121,2315.858,1998.633,2300.181,1996.383z M2336.019,1823.218
			c-9.702,0-17.166,3.731-23.886,11.189c-6.714,7.464-9.702,19.404-9.702,35.088c0,20.142,4.477,35.832,13.434,47.028
			c6.721,8.208,14.929,12.684,25.375,12.684c9.701,0,17.904-3.731,23.88-11.195c5.97-7.464,9.702-18.66,9.702-34.338
			c0-20.148-4.482-36.582-13.428-48.522C2354.667,1827.693,2346.465,1823.218,2336.019,1823.218z"/>
		<path d="M2503.959,1761.262v58.224h41.058v13.428h-41.058v114.948c0,11.189,1.494,19.41,5.226,23.142
			c2.977,3.727,7.465,5.964,12.685,5.964c4.476,0,8.208-1.493,12.684-3.731c3.732-2.988,6.72-6.72,8.958-11.935h7.459
			c-4.471,12.679-11.19,22.38-19.398,28.362c-8.214,6.714-16.416,9.702-25.374,9.702c-5.97,0-11.935-1.494-17.16-5.227
			c-5.97-2.981-9.702-8.208-12.69-14.172c-2.981-5.976-3.731-15.678-3.731-28.374v-119.424h-28.374v-6.708
			c6.72-2.987,14.184-7.464,21.648-14.184c7.463-6.708,14.178-14.922,20.147-23.881c2.988-5.22,6.72-14.172,12.685-26.873h5.226
			L2503.959,1761.262L2503.959,1761.262z"/>
		<path d="M2649.519,1814.26c26.868,0,48.516,10.445,64.932,30.605c13.435,17.166,20.898,37.326,20.898,59.712
			c0,15.679-3.732,32.101-11.195,48.522c-7.465,16.416-17.916,28.368-31.356,36.576s-28.368,12.689-44.784,12.689
			c-26.874,0-47.771-10.452-63.444-32.105c-13.434-17.904-20.153-38.07-20.153-60.456c0-16.423,3.731-32.095,11.945-48.517
			c8.208-16.422,18.66-27.624,32.094-35.832C2621.145,1817.991,2634.585,1814.26,2649.519,1814.26z M2643.549,1826.199
			c-6.72,0-13.435,2.238-20.897,5.97c-6.721,3.732-12.69,11.196-16.423,21.648c-4.481,10.452-6.72,23.13-6.72,39.558
			c0,26.124,5.227,47.778,15.678,66.438c10.446,18.653,23.881,28.361,40.309,28.361c12.689,0,23.142-5.226,30.611-15.659
			c8.208-10.452,11.94-28.375,11.94-53.004c0-31.362-6.72-55.98-20.154-74.641
			C2669.667,1832.919,2657.721,1826.199,2643.549,1826.199z"/>
		<path d="M2812.983,1851.585c20.897-25.374,40.308-37.325,59.711-37.325c9.703,0,17.91,2.237,24.631,7.464
			c6.714,4.47,12.689,12.684,16.416,23.88c2.976,7.464,4.47,19.404,4.47,35.832v75.384c0,11.189,0.743,18.654,2.987,23.13
			c1.488,2.982,3.732,5.97,6.715,7.464c2.987,1.488,8.957,2.982,17.166,2.982v6.72h-87.336v-6.72h3.731
			c8.208,0,14.179-1.494,17.166-3.732c2.981-2.238,5.226-5.97,6.714-11.189c0.75-2.238,0.75-8.202,0.75-17.904v-72.402
			c0-16.416-2.238-27.624-5.97-35.088c-4.482-7.464-11.196-11.196-20.904-11.196c-15.666,0-30.601,8.209-45.528,25.381v93.306
			c0,11.935,0.744,19.398,2.238,22.38c1.494,3.732,4.482,6.714,7.464,8.208c2.987,1.494,9.696,2.238,19.404,2.238v6.72h-88.8v-6.72
			h3.732c8.958,0,14.928-2.238,17.916-6.714c2.981-4.482,4.476-13.435,4.476-26.124v-65.694c0-21.63-0.744-34.332-1.494-38.808
			c-0.743-4.482-2.237-7.464-4.476-9.708c-2.238-1.488-4.482-2.238-8.214-2.238c-3.732,0-8.208,0.75-12.673,2.988l-2.987-6.721
			l53.742-21.636h8.202v35.832L2812.983,1851.585L2812.983,1851.585z"/>
	</g>
	<g>
		<path d="M2253.903,916.299v16.423c-15.673,0-29.119,2.987-38.82,8.208c-9.702,5.97-19.398,16.416-28.368,32.105
			c-5.97,10.44-15.666,35.826-28.368,75.378l-170.934,493.393h-17.91l-139.584-391.135l-138.84,391.135h-16.416l-182.131-508.326
			c-13.428-38.076-22.386-60.456-25.373-67.177c-5.982-11.195-14.185-20.153-24.637-25.373c-10.439-5.221-24.624-8.208-42.546-8.208
			v-16.423h226.908v16.423h-11.19c-15.672,0-28.367,3.726-36.582,11.189c-8.208,7.464-12.684,15.679-12.684,26.124
			c0,10.452,6.714,35.082,20.147,72.396l120.168,343.367l101.521-291.863l-17.904-51.504l-14.184-41.059
			c-5.971-14.916-13.435-28.361-20.898-39.558c-3.732-5.97-8.958-10.452-14.178-14.185c-7.465-5.226-14.928-8.958-22.393-11.939
			c-5.97-1.488-14.928-2.982-26.867-2.982v-16.422h238.109v16.422h-16.41c-17.172,0-29.123,3.727-37.326,11.19
			c-7.463,7.464-11.939,17.166-11.939,29.124c0,15.66,6.714,41.796,20.143,80.616l117.191,332.897l116.436-337.374
			c13.429-37.325,20.148-63.438,20.148-77.628c0-6.72-2.238-13.434-6.72-19.404c-4.476-5.976-9.696-10.451-16.404-12.689
			c-11.196-4.477-26.124-5.964-44.79-5.964v-16.422h183.624L2253.903,916.299L2253.903,916.299z"/>
	</g>
	<g>
		<path d="M1090.221,1528.383c-118.68,0-207.51-32.105-265.733-95.55c-51.498-57.474-77.623-128.388-77.623-213.474
			c0-63.45,14.166-119.43,43.291-167.946c29.111-48.521,67.176-82.859,114.941-103.758c47.778-20.892,117.186-31.356,209.004-31.356
			h249.313v16.423h-23.137c-23.136,0-40.308,6.714-52.248,20.147c-8.214,9.702-12.684,33.601-12.684,71.652v395.609
			c0,34.351,2.977,56.73,9.696,66.433c11.195,16.422,29.118,24.624,55.235,24.624h23.137v16.422h-273.192V1528.383
			L1090.221,1528.383z M1188.747,964.077c-34.338-8.958-65.683-13.434-92.557-13.434c-72.401,0-131.375,24.63-177.647,73.146
			s-69.414,115.698-69.414,200.046c0,83.604,23.136,150.78,69.414,199.296c46.284,49.261,103.752,73.896,173.916,73.896
			c26.124,0,58.218-4.482,96.288-12.69V964.077L1188.747,964.077z"/>
	</g>
</g>
</svg>
